<svg width="75" height="75" viewBox="0 0 75 75" fill="none" xmlns="http://www.w3.org/2000/svg">
<g id="women">
<path id="Vector" fill-rule="evenodd" clip-rule="evenodd" d="M35.1555 55.4688V50H39.843V55.4688H45.3124C46.6068 55.4688 47.6562 56.5181 47.6562 57.8125C47.6562 59.1069 46.6068 60.1562 45.3124 60.1562H39.843L39.8437 68.7497C39.844 70.0444 38.7946 71.0938 37.5002 71.0938C36.2058 71.0938 35.1565 70.0447 35.1562 68.7503L35.1555 60.1562H29.6875C28.3931 60.1562 27.3438 59.1069 27.3438 57.8125C27.3438 56.5181 28.3931 55.4688 29.6875 55.4688H35.1555Z" fill="#111111"/>
<path id="Vector_2" fill-rule="evenodd" clip-rule="evenodd" d="M37.5 8.59375C33.9387 8.59375 30.6065 9.54481 27.7361 11.2052C26.6156 11.8534 25.1819 11.4705 24.5338 10.3501C23.8856 9.22959 24.2685 7.79588 25.3889 7.14772C28.9536 5.08569 33.0925 3.90625 37.5 3.90625C50.8756 3.90625 61.7188 14.7493 61.7188 28.125C61.7188 41.5006 50.8756 52.3438 37.5 52.3438C24.1243 52.3438 13.2812 41.5006 13.2812 28.125C13.2812 23.7176 14.4607 19.5786 16.5227 16.0139C17.1709 14.8935 18.6046 14.5106 19.7251 15.1588C20.8455 15.8069 21.2284 17.2406 20.5802 18.3611C18.9198 21.2315 17.9688 24.5636 17.9688 28.125C17.9688 38.9119 26.7132 47.6562 37.5 47.6562C48.2869 47.6562 57.0312 38.9119 57.0312 28.125C57.0312 17.3382 48.2869 8.59375 37.5 8.59375Z" fill="#111111"/>
</g>
</svg>
