<svg width="77" height="69" viewBox="0 0 77 69" fill="none" xmlns="http://www.w3.org/2000/svg">
<path id="Vector" d="M74.9258 30.9727L66.0082 11.5789H72.0681C72.3888 11.5719 72.6938 11.4386 72.9175 11.2078C73.1411 10.977 73.2655 10.6672 73.2637 10.3452V4.32691C73.2635 4.17057 73.2323 4.01584 73.1718 3.87177C73.1113 3.72771 73.0228 3.59721 72.9115 3.48792C72.8001 3.37863 72.6682 3.29275 72.5234 3.2353C72.3786 3.17785 72.2238 3.14999 72.0681 3.15336H43.248C42.6542 2.47662 41.9237 1.93459 41.105 1.56331C40.2864 1.19203 39.3985 1 38.5002 1C37.602 1 36.714 1.19203 35.8954 1.56331C35.0768 1.93459 34.3463 2.47662 33.7525 3.15336H4.78248C4.62681 3.14999 4.47204 3.17785 4.32723 3.2353C4.18241 3.29275 4.05047 3.37863 3.93913 3.48792C3.82779 3.59721 3.73929 3.72771 3.6788 3.87177C3.61832 4.01584 3.58707 4.17057 3.58688 4.32691V10.3452C3.58512 10.6672 3.70947 10.977 3.93314 11.2078C4.1568 11.4386 4.46184 11.5719 4.78248 11.5789H10.9923L2.07452 30.9727C1.78036 31.0019 1.50749 31.1398 1.30892 31.3596C1.11035 31.5795 1.00024 31.8656 1 32.1624C0.999544 34.5205 1.69636 36.8257 3.00214 38.7858C4.30791 40.7459 6.16385 42.2725 8.3347 43.1723C10.5056 44.0721 12.8936 44.3045 15.1961 43.84C17.4987 43.3755 19.612 42.2351 21.2683 40.5632C22.3859 39.469 23.2747 38.1617 23.8826 36.718C24.4905 35.2743 24.8051 33.7233 24.8082 32.1559C24.8075 31.8462 24.6866 31.549 24.4712 31.3274C24.2557 31.1059 23.9627 30.9774 23.6544 30.9693L14.7386 11.5789H33.7525C33.9252 11.7294 34.1095 11.9295 34.3046 12.1028V51.3144C32.6762 52.0476 31.267 53.1956 30.2169 54.6446C29.1669 56.0936 28.5125 57.7931 28.3187 59.5744H23.4514C23.3013 59.5675 23.1514 59.5919 23.0112 59.6461C22.871 59.7004 22.7435 59.7833 22.6369 59.8896C22.5303 59.9959 22.4468 60.1233 22.3918 60.2636C22.3367 60.404 22.3113 60.5544 22.3172 60.7051V66.7234C22.3172 67.3881 22.7894 68 23.4514 68H53.5491C54.2111 68 54.6832 67.3881 54.6832 66.7234V60.7051C54.6891 60.5544 54.6637 60.404 54.6087 60.2636C54.5537 60.1233 54.4702 59.9959 54.3636 59.8896C54.2569 59.7833 54.1295 59.7004 53.9893 59.6461C53.8491 59.5919 53.6992 59.5675 53.5491 59.5744H48.6817C48.4879 57.7931 47.8336 56.0936 46.7835 54.6446C45.7335 53.1956 44.3243 52.0476 42.6958 51.3144V12.1028C42.8906 11.9295 43.0752 11.7294 43.248 11.5789H62.2618L53.3462 30.9688C53.0372 30.9785 52.744 31.1085 52.5287 31.3312C52.3134 31.554 52.1928 31.8521 52.1924 32.1625C52.1921 34.5205 52.889 36.8256 54.1947 38.7855C55.5005 40.7454 57.3563 42.272 59.5271 43.1717C61.6978 44.0714 64.0857 44.3039 66.3881 43.8395C68.6905 43.3751 70.8038 42.2349 72.4601 40.5632C73.5776 39.4705 74.4664 38.1645 75.0743 36.722C75.6822 35.2796 75.9969 33.7297 76 32.1634C75.9998 31.8666 75.8898 31.5803 75.6913 31.3603C75.4928 31.1403 75.22 31.0021 74.9258 30.9727ZM72.2826 30.9878H55.9869L64.1344 13.2547L72.2826 30.9878ZM38.5002 3.37678C39.28 3.37678 40.0423 3.60896 40.6907 4.04397C41.3391 4.47897 41.8444 5.09726 42.1429 5.82064C42.4413 6.54403 42.5194 7.34003 42.3673 8.10798C42.2152 8.87594 41.8397 9.58136 41.2883 10.135C40.7369 10.6887 40.0344 11.0658 39.2696 11.2186C38.5048 11.3714 37.712 11.293 36.9916 10.9934C36.2711 10.6938 35.6553 10.1864 35.222 9.53544C34.7888 8.88443 34.5575 8.11903 34.5574 7.33604C34.5585 6.28637 34.9743 5.28001 35.7134 4.53776C36.4526 3.79551 37.4548 3.37798 38.5002 3.37678ZM12.8654 13.2547L21.0136 30.9878H4.7179L12.8654 13.2547ZM12.8654 41.6981C10.5633 41.6932 8.34145 40.8483 6.61357 39.3208C4.88568 37.7933 3.76955 35.6874 3.473 33.3951H22.3301C21.7152 37.9087 17.6309 41.6981 12.8654 41.6981ZM5.98437 9.17161V5.56066H32.4213C32.0728 6.73888 32.0728 7.99338 32.4213 9.17161H5.98437ZM52.2858 65.5927H24.7147V61.9817H52.2858V65.5927ZM46.2654 59.5744H30.7351C31.3139 55.6626 34.5757 52.8895 38.5002 52.8895C42.4248 52.8895 45.6865 55.6626 46.2654 59.5744ZM40.2983 50.571C39.1092 50.3551 37.8912 50.3551 36.7021 50.571V13.4396C37.8756 13.7893 39.1249 13.7893 40.2983 13.4396V50.571ZM44.5792 5.56066H70.8662V9.17161H44.5792C44.9276 7.99338 44.9276 6.73888 44.5792 5.56066ZM64.0587 41.6981C61.7566 41.6932 59.5346 40.8484 57.8066 39.3209C56.0787 37.7934 54.9625 35.6874 54.6659 33.3951H73.523C72.908 37.9087 68.8237 41.6981 64.0583 41.6981H64.0587Z" fill="black" stroke="black"/>
</svg>
