<svg width="128" height="71" viewBox="0 0 128 71" fill="none" xmlns="http://www.w3.org/2000/svg">
<path id="Vector" d="M53.5077 55.531C45.7577 61.7961 36.5769 59.5756 29.3038 50.9313C21.832 42.0095 20.2026 25.9502 21.0372 16.4335C28.7474 17.1076 40.3526 20.0816 48.5 25.8709M53.5077 55.531C56.25 57.7912 59.7474 59.0998 64 59.0998C68.5308 59.0998 72.1872 57.6723 75.009 55.0552C79.2615 51.1692 81.4872 44.6662 81.4872 36.8943C81.4872 33.2463 80.7321 29.5189 79.4603 25.8709C76.1615 16.4335 69.5244 7.51171 64 2C58.4756 7.47206 51.8385 16.3939 48.5397 25.8709C47.268 29.5189 46.5128 33.2463 46.5128 36.8943C46.5128 44.9834 48.8974 51.6847 53.5077 55.531ZM74.4923 55.531C82.2423 61.7961 91.4231 59.5756 98.6962 50.9313C106.168 42.0095 107.797 25.9502 106.963 16.4335C99.2526 17.1076 87.6474 20.0816 79.5 25.8709M82.5603 59.0601C84.6667 66.6337 91.1449 70.2421 100.286 68.6164C110.341 66.832 121.151 56.443 126 49.5831C120.992 46.0937 112.368 41.9302 104.181 40.582M45.4397 59.0601C43.3333 66.6337 36.8551 70.2421 27.7141 68.6164C17.659 66.832 6.84872 56.443 2 49.5831C7.00769 46.0937 15.632 41.9302 23.8192 40.582" stroke="black" stroke-width="4" stroke-miterlimit="2.613" stroke-linecap="round" stroke-linejoin="round"/>
</svg>
