<svg width="31" height="31" viewBox="0 0 31 31" fill="none" xmlns="http://www.w3.org/2000/svg">
<path d="M22.2564 30H8.72308C6.67207 30 4.70507 29.1852 3.25479 27.735C1.80451 26.2847 0.989746 24.3177 0.989746 22.2667V8.73333C0.989746 6.68233 1.80451 4.71532 3.25479 3.26504C4.70507 1.81476 6.67207 1 8.72308 1H22.2564C24.3074 1 26.2744 1.81476 27.7247 3.26504C29.175 4.71532 29.9897 6.68233 29.9897 8.73333V22.2667C29.9897 24.3177 29.175 26.2847 27.7247 27.735C26.2744 29.1852 24.3074 30 22.2564 30Z" stroke="#1E1E1E" stroke-width="1.5" stroke-miterlimit="10"/>
<path d="M15.4898 22.2666C19.2269 22.2666 22.2565 19.2371 22.2565 15.4999C22.2565 11.7628 19.2269 8.73328 15.4898 8.73328C11.7527 8.73328 8.72314 11.7628 8.72314 15.4999C8.72314 19.2371 11.7527 22.2666 15.4898 22.2666Z" stroke="#1E1E1E" stroke-width="1.5" stroke-miterlimit="10"/>
<path d="M24.4897 8C25.3182 8 25.9897 7.32843 25.9897 6.5C25.9897 5.67157 25.3182 5 24.4897 5C23.6613 5 22.9897 5.67157 22.9897 6.5C22.9897 7.32843 23.6613 8 24.4897 8Z" stroke="#1E1E1E" stroke-width="1.5" stroke-miterlimit="10"/>
</svg>
