<svg width="80" height="81" viewBox="0 0 80 81" fill="none" xmlns="http://www.w3.org/2000/svg">
<g id="logo">
<path id="Vector 9" d="M12.8273 65.9324L21.0766 47.3714L2 40.1532L21.0766 31.3883L12.8273 12.3117L31.9039 21.5922L39.6376 2L46.8558 21.5922L66.448 12.3117L57.683 31.3883L78.3064 40.1532L57.683 47.3714L66.448 65.9324L46.8558 58.1986L39.6376 78.822L31.9039 58.1986L12.8273 65.9324Z" fill="#CAECFF" stroke="#0A0D63"/>
<path id="Union" fill-rule="evenodd" clip-rule="evenodd" d="M31.3884 38.0908C32.8121 38.0908 33.9663 36.9366 33.9663 35.5129C33.9663 35.2891 33.9378 35.0847 33.8842 34.8991C34.4971 35.1652 35.1006 35.5673 35.675 36.1417C35.8703 36.3369 36.1869 36.3369 36.3821 36.1417C36.5774 35.9464 36.5774 35.6298 36.3821 35.4346C34.9354 33.9879 33.3053 33.4702 31.7675 33.4663C31.6438 33.4558 31.5172 33.4506 31.3884 33.4506C30.9451 33.4506 30.528 33.5125 30.1637 33.6407C28.6007 33.978 27.253 34.7439 26.4357 35.3977C26.2201 35.5702 26.1851 35.8848 26.3576 36.1005C26.5301 36.3161 26.8448 36.3511 27.0604 36.1786C27.4979 35.8286 28.1153 35.4387 28.8424 35.1195C28.8214 35.2433 28.8105 35.3744 28.8105 35.5129C28.8105 36.9366 29.9646 38.0908 31.3884 38.0908Z" fill="#0A0D63"/>
<path id="Union_2" fill-rule="evenodd" clip-rule="evenodd" d="M48.4028 38.0908C46.979 38.0908 45.8248 36.9366 45.8248 35.5129C45.8248 35.289 45.8534 35.0846 45.907 34.899C45.2939 35.1651 44.6904 35.5672 44.1159 36.1417C43.9207 36.3369 43.6041 36.3369 43.4088 36.1417C43.2136 35.9464 43.2136 35.6298 43.4088 35.4346C44.8556 33.9878 46.4857 33.4702 48.0235 33.4664C48.1473 33.4558 48.2739 33.4506 48.4028 33.4506C48.8461 33.4506 49.2634 33.5125 49.6278 33.6408C51.1906 33.9782 52.5381 34.744 53.3552 35.3977C53.5709 35.5702 53.6058 35.8848 53.4333 36.1005C53.2608 36.3161 52.9462 36.3511 52.7305 36.1786C52.2931 35.8286 51.6758 35.4388 50.9487 35.1196C50.9697 35.2434 50.9807 35.3744 50.9807 35.5129C50.9807 36.9366 49.8265 38.0908 48.4028 38.0908Z" fill="#0A0D63"/>
<path id="Vector 11" d="M38.6064 35.5129C38.6064 35.5129 39.122 37.0597 38.6064 38.0909C38.0908 39.122 37.0596 40.6688 37.0596 41.6999C37.0596 42.7311 38.0908 43.7623 40.1531 43.7623" stroke="#0A0D63" stroke-linecap="round"/>
<path id="Vector 12" d="M39.122 48.4025C37.0596 48.4025 34.138 46.3402 32.935 45.309C33.9661 47.5432 36.7503 52.0116 39.6376 52.0116C42.5248 52.0116 44.9653 47.5432 45.8246 45.309C44.4497 46.3402 41.1843 48.4025 39.122 48.4025Z" fill="#0A0D63" stroke="#0A0D63" stroke-width="0.5" stroke-linejoin="round"/>
<circle id="Ellipse 42" cx="30.3571" cy="45.8246" r="0.515584" fill="#0A0D63"/>
<circle id="Ellipse 43" cx="26.2324" cy="44.7935" r="0.515584" fill="#0A0D63"/>
<circle id="Ellipse 44" cx="28.2948" cy="42.7311" r="0.515584" fill="#0A0D63"/>
<circle id="Ellipse 45" cx="30.3571" cy="41.7" r="0.515584" fill="#0A0D63"/>
<circle id="Ellipse 46" cx="33.4507" cy="40.6688" r="0.515584" fill="#0A0D63"/>
<circle id="Ellipse 47" cx="27.2635" cy="40.6688" r="0.515584" fill="#0A0D63"/>
<circle id="Ellipse 48" cx="24.1702" cy="38.6064" r="0.515584" fill="#0A0D63"/>
<circle id="Ellipse 49" cx="25.2013" cy="41.6999" r="0.515584" fill="#0A0D63"/>
<circle id="Ellipse 50" cx="44.7935" cy="41.6999" r="0.515584" fill="#0A0D63"/>
<circle id="Ellipse 51" cx="47.887" cy="41.6999" r="0.515584" fill="#0A0D63"/>
<circle id="Ellipse 52" cx="50.9805" cy="41.6999" r="0.515584" fill="#0A0D63"/>
<circle id="Ellipse 53" cx="49.9492" cy="43.7623" r="0.515584" fill="#0A0D63"/>
<circle id="Ellipse 54" cx="50.9805" cy="45.8246" r="0.515584" fill="#0A0D63"/>
<circle id="Ellipse 55" cx="53.0427" cy="40.6688" r="0.515584" fill="#0A0D63"/>
<circle id="Ellipse 56" cx="56.1362" cy="40.6688" r="0.515584" fill="#0A0D63"/>
</g>
</svg>
