<svg width="17" height="31" viewBox="0 0 17 31" fill="none" xmlns="http://www.w3.org/2000/svg">
<path d="M2.04167 1.29175C1.32608 1.29175 0.75 1.86783 0.75 2.58341V28.4167C0.75 29.1323 1.32608 29.7084 2.04167 29.7084H14.9583C15.6739 29.7084 16.25 29.1323 16.25 28.4167V2.58341C16.25 1.86783 15.6739 1.29175 14.9583 1.29175H2.04167ZM2.04167 1.93758H4.30208C4.31261 1.93749 4.32313 1.93791 4.33362 1.93884C4.34463 1.93996 4.35558 1.94164 4.36641 1.94388C4.37662 1.94592 4.38672 1.94844 4.39669 1.95145C4.40696 1.95473 4.41706 1.95852 4.42695 1.96281C4.43728 1.96691 4.44738 1.97154 4.45722 1.97668C4.46634 1.98213 4.47518 1.98802 4.48372 1.99434C4.49286 2.0002 4.5017 2.00651 4.51021 2.01326C4.51815 2.02045 4.52573 2.02803 4.53292 2.03597C4.54046 2.04359 4.54761 2.05159 4.55436 2.05993C4.56111 2.06844 4.56742 2.07728 4.57328 2.08642C4.57921 2.09539 4.58468 2.10465 4.58968 2.11417C4.59436 2.12363 4.59856 2.13331 4.60229 2.14318C4.60619 2.15352 4.60956 2.16404 4.61239 2.17472C4.61544 2.1851 4.61796 2.19562 4.61996 2.20625C4.62174 2.2167 4.62301 2.22722 4.62377 2.23779C4.62444 2.24534 4.62486 2.25292 4.625 2.2605V2.58341C4.625 2.94121 4.91304 3.22925 5.27083 3.22925H11.7292C12.087 3.22925 12.375 2.94121 12.375 2.58341V2.2605C12.3749 2.24997 12.3753 2.23945 12.3763 2.22896C12.3774 2.21795 12.3791 2.20701 12.3813 2.19617C12.3833 2.18554 12.3858 2.17501 12.3889 2.16463C12.3922 2.15436 12.396 2.14425 12.4003 2.13436C12.4044 2.12446 12.409 2.11478 12.4141 2.10535C12.4196 2.09623 12.4255 2.08739 12.4318 2.07886C12.4376 2.06971 12.444 2.06087 12.4507 2.05237C12.4574 2.04403 12.4646 2.03603 12.4721 2.0284C12.4802 2.02126 12.4886 2.01452 12.4974 2.00822C12.5055 2.00151 12.5139 1.99519 12.5226 1.9893C12.532 1.98334 12.5417 1.97786 12.5516 1.9729C12.561 1.9678 12.5707 1.96316 12.5806 1.95902C12.5905 1.95516 12.6006 1.9518 12.6109 1.94893C12.6213 1.94631 12.6318 1.9442 12.6424 1.94262C12.6533 1.9408 12.6642 1.93954 12.6752 1.93884C12.6828 1.93815 12.6903 1.93773 12.6979 1.93758H14.9583C15.3161 1.93758 15.6042 2.22562 15.6042 2.58341V28.4167C15.6042 28.7745 15.3161 29.0626 14.9583 29.0626H2.04167C1.68387 29.0626 1.39583 28.7745 1.39583 28.4167V2.58341C1.39583 2.22562 1.68387 1.93758 2.04167 1.93758Z" fill="#1E1E1E"/>
<path d="M5.59375 26.8542H11.4062C11.5851 26.8542 11.7292 26.9982 11.7292 27.1771C11.7292 27.356 11.5851 27.5001 11.4062 27.5001H5.59375C5.41485 27.5001 5.27083 27.356 5.27083 27.1771C5.27083 26.9982 5.41485 26.8542 5.59375 26.8542Z" fill="#1E1E1E"/>
<path d="M2.04167 1.29175C1.32608 1.29175 0.75 1.86783 0.75 2.58341V28.4167C0.75 29.1323 1.32608 29.7084 2.04167 29.7084H14.9583C15.6739 29.7084 16.25 29.1323 16.25 28.4167V2.58341C16.25 1.86783 15.6739 1.29175 14.9583 1.29175H2.04167ZM2.04167 1.93758H4.30208C4.31261 1.93749 4.32313 1.93791 4.33362 1.93884C4.34463 1.93996 4.35558 1.94164 4.36641 1.94388C4.37662 1.94592 4.38672 1.94844 4.39669 1.95145C4.40696 1.95473 4.41706 1.95852 4.42695 1.96281C4.43728 1.96691 4.44738 1.97154 4.45722 1.97668C4.46634 1.98213 4.47518 1.98802 4.48372 1.99434C4.49286 2.0002 4.5017 2.00651 4.51021 2.01326C4.51815 2.02045 4.52573 2.02803 4.53292 2.03597C4.54046 2.04359 4.54761 2.05159 4.55436 2.05993C4.56111 2.06844 4.56742 2.07728 4.57328 2.08642C4.57921 2.09539 4.58468 2.10465 4.58968 2.11417C4.59436 2.12363 4.59856 2.13331 4.60229 2.14318C4.60619 2.15352 4.60956 2.16404 4.61239 2.17472C4.61544 2.1851 4.61796 2.19562 4.61996 2.20625C4.62174 2.2167 4.62301 2.22722 4.62377 2.23779C4.62444 2.24534 4.62486 2.25292 4.625 2.2605V2.58341C4.625 2.94121 4.91304 3.22925 5.27083 3.22925H11.7292C12.087 3.22925 12.375 2.94121 12.375 2.58341V2.2605C12.3749 2.24997 12.3753 2.23945 12.3763 2.22896C12.3774 2.21795 12.3791 2.20701 12.3813 2.19617C12.3833 2.18554 12.3858 2.17501 12.3889 2.16463C12.3922 2.15436 12.396 2.14425 12.4003 2.13436C12.4044 2.12446 12.409 2.11478 12.4141 2.10535C12.4196 2.09623 12.4255 2.08739 12.4318 2.07886C12.4376 2.06971 12.444 2.06087 12.4507 2.05237C12.4574 2.04403 12.4646 2.03603 12.4721 2.0284C12.4802 2.02126 12.4886 2.01452 12.4974 2.00822C12.5055 2.00151 12.5139 1.99519 12.5226 1.9893C12.532 1.98334 12.5417 1.97786 12.5516 1.9729C12.561 1.9678 12.5707 1.96316 12.5806 1.95902C12.5905 1.95516 12.6006 1.9518 12.6109 1.94893C12.6213 1.94631 12.6318 1.9442 12.6424 1.94262C12.6533 1.9408 12.6642 1.93954 12.6752 1.93884C12.6828 1.93815 12.6903 1.93773 12.6979 1.93758H14.9583C15.3161 1.93758 15.6042 2.22562 15.6042 2.58341V28.4167C15.6042 28.7745 15.3161 29.0626 14.9583 29.0626H2.04167C1.68387 29.0626 1.39583 28.7745 1.39583 28.4167V2.58341C1.39583 2.22562 1.68387 1.93758 2.04167 1.93758Z" stroke="#1E1E1E" stroke-width="0.75"/>
<path d="M5.59375 26.8542H11.4062C11.5851 26.8542 11.7292 26.9982 11.7292 27.1771C11.7292 27.356 11.5851 27.5001 11.4062 27.5001H5.59375C5.41485 27.5001 5.27083 27.356 5.27083 27.1771C5.27083 26.9982 5.41485 26.8542 5.59375 26.8542Z" stroke="#1E1E1E" stroke-width="0.75"/>
</svg>
