<svg width="39" height="39" viewBox="0 0 39 39" fill="none" xmlns="http://www.w3.org/2000/svg">
<path fill-rule="evenodd" clip-rule="evenodd" d="M33.2794 5.71003C29.7497 2.19103 24.8816 0 19.4948 0C14.108 0 9.23984 2.19103 5.71011 5.71003C2.18071 9.24 0 14.1189 0 19.5056C0 24.8809 2.18071 29.7606 5.71011 33.29C9.23984 36.8091 14.108 39 19.4948 39C24.8816 39 29.7497 36.809 33.2794 33.29C36.8088 29.7606 38.9899 24.8809 38.9899 19.5056C38.9899 14.1189 36.8089 9.24009 33.2794 5.71003ZM32.2002 32.2109C28.9507 35.46 24.4601 37.4784 19.4948 37.4784C14.5294 37.4784 10.0388 35.46 6.7893 32.2109C3.53013 28.9617 1.52208 24.4604 1.52208 19.5057C1.52208 14.5402 3.53013 10.0388 6.7893 6.7897C10.0388 3.54021 14.5294 1.53273 19.4948 1.53273C24.4601 1.53273 28.9507 3.54021 32.2002 6.7897C35.4598 10.0388 37.467 14.5402 37.467 19.5057C37.467 24.4604 35.4598 28.9616 32.2002 32.2109Z" fill="white"/>
<path fill-rule="evenodd" clip-rule="evenodd" d="M28.454 13.2878C27.6989 12.4676 26.8458 12.4109 26.4682 12.3567C23.6832 12.1518 19.5059 12.1062 19.5059 12.1062H19.4836C19.4836 12.1062 15.3175 12.1518 12.5317 12.3567C12.133 12.4109 11.291 12.4449 10.5355 13.2648C9.94146 13.8912 9.80463 15.3381 9.80463 15.3381C9.80463 15.3381 9.6665 17.0335 9.6665 18.6959V20.2827C9.6665 21.9667 9.80455 23.6291 9.80455 23.6291C9.80455 23.6291 9.97526 25.0648 10.5693 25.7014C11.3248 26.5326 12.3016 26.5003 12.7545 26.5865C14.3416 26.7487 19.5143 26.8026 19.5143 26.8026C19.5143 26.8026 23.6873 26.781 26.4724 26.5865C26.8499 26.5327 27.7008 26.5327 28.4558 25.7014C29.0502 25.0648 29.1954 23.6291 29.1954 23.6291C29.1954 23.6291 29.3294 21.9666 29.3294 20.2827V18.6958C29.3294 17.0335 29.1943 15.3495 29.1943 15.3495C29.1943 15.3495 29.0483 13.914 28.454 13.2878ZM17.5479 22.1824V16.3535L19.9301 17.6814L22.9056 19.2791L17.5479 22.1824Z" fill="white"/>
</svg>
